# xmcd
#
# Track frame offsets:
# 150
# 12026
# 24663
# 39934
# 53836
# 64359
# 75550
# 89870
# 102903
# 117553
# 130753
#
# Disc length: 1920 seconds
#
#
# Revision: 0
# Processed by: cddbd v1.5.2PL0 Copyright (c) Steve Scherf et al.
# Submitted via: FreeRIP 2.941 
#
DISCID=8e077e0b
DTITLE=Los Invasores de Nuevo León - Con tal de que me olvides
DYEAR=2007
DGENRE=Norteña
TTITLE0=Con tal de que me olvides
TTITLE1=Decías que no
TTITLE2=Hubiera sido ayer
TTITLE3=Ya no te amo
TTITLE4=Tu retratito
TTITLE5=Cuando llora n hombre
TTITLE6=Golpe de suerte
TTITLE7=Hay mi madre
TTITLE8=Se escucha fácil
TTITLE9=Voy a quemar el colchón
TTITLE10=Ya no he llorado por ti
EXTD=
EXTT0=
EXTT1=
EXTT2=
EXTT3=
EXTT4=
EXTT5=
EXTT6=
EXTT7=
EXTT8=
EXTT9=
EXTT10=
PLAYORDER=
